<mxfile host="app.diagrams.net" modified="2023-04-16T16:41:12.775Z" agent="Mozilla/5.0 (X11; Linux x86_64) AppleWebKit/537.36 (KHTML, like Gecko) Chrome/108.0.0.0 YaBrowser/23.1.1.1038 (beta) Yowser/2.5 Safari/537.36" version="21.1.8" etag="P0g7_uVU3I7sQRWw0U0m" type="github">
  <diagram name="Page-1" id="v0myXdS4nq9MMTkE8YGS">
    <mxGraphModel>
      <root>
        <mxCell id="0" />
        <mxCell id="1" parent="0" />
      </root>
    </mxGraphModel>
  </diagram>
</mxfile>
